# xmcd
#
# Track frame offsets: 
#        150
#        20847
#        23602
#        46760
#        61730
#        93445
#        109912
#        148835
#        173365
#
# Disc length: 2432 seconds
#
# Revision: 4
# Processed by: cddbd v1.5.2PL0 Copyright (c) Steve Scherf et al.
# Submitted via: ExactAudioCopy v1.3
#
DISCID=6b097e09
DTITLE=B. B. King - The Best Of B. B. King
DYEAR=1973
DGENRE=Blues
TTITLE0=Hummingbird
TTITLE1=Cook County Jail Introduction
TTITLE2=How Blue Can You Get
TTITLE3=Caldonia
TTITLE4=Sweet Sixteen
TTITLE5=Ain't Nobody Home
TTITLE6=Why I Sing The Blues
TTITLE7=The Thrill Is Gone
TTITLE8=Nobody Loves Me But My Mother
EXTD=
EXTT0=
EXTT1=
EXTT2=
EXTT3=
EXTT4=
EXTT5=
EXTT6=
EXTT7=
EXTT8=
PLAYORDER=
